<svg width="92" height="37" viewBox="0 0 92 37" fill="none" xmlns="http://www.w3.org/2000/svg">
<path d="M5.39999 17.36C4.79999 17.2 4.11999 16.88 3.35999 16.4C2.59999 15.88 1.93999 15.24 1.37999 14.48C0.819993 13.68 0.539993 12.8 0.539993 11.84C0.539993 11.4 0.619993 10.96 0.779993 10.52C0.779993 10.48 0.779993 10.34 0.779993 10.1C0.819993 9.86001 0.859993 9.66002 0.899993 9.50002C1.33999 7.50002 2.35999 5.86001 3.95999 4.58001C5.55999 3.26001 7.51999 2.24002 9.83999 1.52001C12.16 0.800014 14.58 0.360013 17.1 0.200013C17.58 0.160014 18.06 0.140015 18.54 0.140015C19.02 0.140015 19.5 0.140015 19.98 0.140015C22.78 0.140015 25.56 0.320014 28.32 0.680015C31.08 1.04001 33.58 1.40001 35.82 1.76001C38.1 2.08002 39.9 2.26002 41.22 2.30002C42.34 1.14002 43.16 0.500016 43.68 0.380015C43.8 0.340016 43.98 0.320016 44.22 0.320016C44.66 0.320016 45.06 0.440015 45.42 0.680015C45.78 0.880014 45.96 1.18001 45.96 1.58001C45.96 1.94001 45.8 2.28001 45.48 2.60001C45.2 2.88001 44.76 3.22001 44.16 3.62002C43.56 4.02001 42.98 4.52002 42.42 5.12002C41.62 5.92002 40.9 6.82002 40.26 7.82002C39.62 8.82001 39.3 9.78001 39.3 10.7C39.3 11.38 39.46 11.96 39.78 12.44C39.86 12.52 39.9 12.6 39.9 12.68C39.9 13 39.74 13.16 39.42 13.16C39.14 13.16 38.84 13 38.52 12.68C38.2 12.28 38.04 11.42 38.04 10.1C38.04 9.30001 38.12 8.44001 38.28 7.52001C38.44 6.60001 38.72 5.76001 39.12 5.00002C39.28 4.72002 39.5 4.40001 39.78 4.04001C40.1 3.64001 40.34 3.34002 40.5 3.14002C37.62 3.10002 34.7 2.94002 31.74 2.66001C28.78 2.38002 25.86 2.24002 22.98 2.24002C21.62 2.24002 20.1 2.34002 18.42 2.54002C16.74 2.70002 15.02 2.98002 13.26 3.38002C11.5 3.78001 9.85999 4.36002 8.33999 5.12002C6.81999 5.84002 5.51999 6.74002 4.43999 7.82002C3.35999 8.90002 2.65999 10.2 2.33999 11.72C2.29999 11.88 2.25999 12.02 2.21999 12.14C2.21999 12.26 2.21999 12.38 2.21999 12.5C2.21999 13.26 2.43999 13.9 2.87999 14.42C3.35999 14.94 3.89999 15.38 4.49999 15.74C5.09999 16.06 5.55999 16.36 5.87999 16.64C6.15999 16.8 6.29999 16.96 6.29999 17.12C6.29999 17.28 6.19999 17.38 5.99999 17.42C5.83999 17.46 5.63999 17.44 5.39999 17.36ZM11.34 36.62C11.22 36.62 10.98 36.58 10.62 36.5C10.26 36.42 9.91999 36.32 9.59999 36.2C9.27999 36.08 9.09999 35.94 9.05999 35.78C8.93999 35.02 9.11999 33.94 9.59999 32.54C10.12 31.1 10.78 29.52 11.58 27.8C12.42 26.08 13.28 24.36 14.16 22.64C15.08 20.92 15.92 19.38 16.68 18.02C17.44 16.62 18 15.56 18.36 14.84C18.68 14.16 18.84 13.6 18.84 13.16C18.84 12.96 18.82 12.82 18.78 12.74C18.78 12.62 18.76 12.52 18.72 12.44C18.8 11.96 19.1 11.32 19.62 10.52C20.14 9.72001 20.78 8.92001 21.54 8.12002C22.3 7.32001 23.1 6.66001 23.94 6.14001C24.82 5.58001 25.66 5.30001 26.46 5.30001C26.7 5.30001 27.12 5.40001 27.72 5.60001C28.32 5.76001 28.86 6.04001 29.34 6.44001C29.82 6.84001 30.02 7.36001 29.94 8.00001C29.66 7.80001 29.42 7.70002 29.22 7.70002C28.3 7.70002 27.3 8.14002 26.22 9.02001C25.14 9.90002 24.02 11.08 22.86 12.56C21.74 14.04 20.62 15.66 19.5 17.42C18.42 19.18 17.4 20.96 16.44 22.76C15.48 24.52 14.64 26.16 13.92 27.68C13.2 29.16 12.64 30.36 12.24 31.28C12.08 31.68 11.96 32.04 11.88 32.36C11.8 32.68 11.76 32.94 11.76 33.14C11.76 33.7 11.96 33.98 12.36 33.98C12.64 33.98 12.94 33.88 13.26 33.68C13.58 33.44 13.88 33.16 14.16 32.84C14.6 32.32 15 31.84 15.36 31.4C15.72 30.92 16.04 30.72 16.32 30.8C16.36 30.84 16.38 30.9 16.38 30.98C16.38 31.22 16.26 31.5 16.02 31.82C15.78 32.14 15.64 32.32 15.6 32.36C15.28 32.76 14.88 33.3 14.4 33.98C13.96 34.66 13.48 35.26 12.96 35.78C12.44 36.34 11.9 36.62 11.34 36.62Z" fill="#3F2511"/>
<path d="M27.2362 35.66C26.1162 35.66 25.1362 35.4 24.2962 34.88C22.8962 34.04 22.1962 32.52 22.1962 30.32C22.1962 29.4 22.3562 28.34 22.6762 27.14C22.9562 26.14 23.4562 25.06 24.1762 23.9C24.8962 22.7 25.7362 21.56 26.6962 20.48C27.6962 19.4 28.7762 18.52 29.9362 17.84C31.0962 17.16 32.2562 16.82 33.4162 16.82C33.8962 16.82 34.3162 16.88 34.6762 17C35.1562 17.16 35.5562 17.46 35.8762 17.9C36.2362 18.3 36.4162 18.82 36.4162 19.46C36.4162 20.14 36.2362 20.52 35.8762 20.6C35.5562 20.68 35.3962 20.6 35.3962 20.36C35.3962 20.28 35.3962 20.2 35.3962 20.12C35.4362 20.04 35.4562 19.98 35.4562 19.94C35.4562 19.62 35.3562 19.34 35.1562 19.1C34.9962 18.82 34.6762 18.68 34.1962 18.68C33.5562 18.68 32.7562 19.02 31.7962 19.7C30.8762 20.38 29.9162 21.3 28.9162 22.46C27.9562 23.58 27.0962 24.82 26.3362 26.18C25.6162 27.54 25.1362 28.9 24.8962 30.26C24.8562 30.46 24.8162 30.66 24.7762 30.86C24.7762 31.02 24.7762 31.2 24.7762 31.4C24.7762 32.32 24.9762 33.1 25.3762 33.74C25.8162 34.34 26.4962 34.64 27.4162 34.64C28.5362 34.64 29.6162 34.22 30.6562 33.38C31.6962 32.5 32.6162 31.46 33.4162 30.26C34.2562 29.06 34.8762 28 35.2762 27.08C35.5962 26.36 35.8162 25.74 35.9362 25.22C36.0562 24.7 36.1162 24.26 36.1162 23.9C36.1162 23.58 36.0762 23.3 35.9962 23.06C35.9562 22.82 35.8962 22.62 35.8162 22.46C35.7362 22.22 35.6962 22.04 35.6962 21.92C35.6962 21.6 35.8162 21.34 36.0562 21.14C36.3362 20.94 36.6162 20.84 36.8962 20.84C37.1362 20.84 37.3962 20.92 37.6762 21.08C37.9962 21.16 38.4362 21.22 38.9962 21.26C39.5562 21.3 40.1562 21.32 40.7962 21.32C41.4762 21.32 42.1562 21.3 42.8362 21.26C43.5562 21.22 44.1762 21.14 44.6962 21.02C44.7762 20.98 44.8962 20.96 45.0562 20.96C45.3362 20.96 45.4762 21.04 45.4762 21.2C45.4762 21.36 45.3362 21.5 45.0562 21.62C43.6562 22.26 42.3962 22.6 41.2762 22.64C40.1962 22.68 39.2562 22.7 38.4562 22.7C38.5362 23.7 38.3162 24.78 37.7962 25.94C37.2762 27.06 36.7362 28.06 36.1762 28.94C35.4962 29.94 34.7162 30.96 33.8362 32C32.9562 33.04 31.9762 33.92 30.8962 34.64C29.8162 35.32 28.5962 35.66 27.2362 35.66Z" fill="#3F2511"/>
<path d="M51.277 35.72C50.597 35.72 49.997 35.56 49.477 35.24C48.957 34.96 48.597 34.4 48.397 33.56C48.277 33.12 48.217 32.68 48.217 32.24C48.217 31.04 48.517 29.88 49.117 28.76C49.757 27.6 50.497 26.54 51.337 25.58C52.177 24.58 52.897 23.74 53.497 23.06C53.817 22.74 54.177 22.32 54.577 21.8C55.017 21.28 55.237 20.76 55.237 20.24C55.237 19.92 55.077 19.62 54.757 19.34C54.437 19.02 53.857 18.8 53.017 18.68C52.537 18.6 52.077 18.54 51.637 18.5C51.237 18.42 50.817 18.38 50.377 18.38C49.257 19.9 48.157 21.44 47.077 23C46.037 24.52 44.917 26.02 43.717 27.5C43.437 27.78 43.197 27.92 42.997 27.92C42.757 27.92 42.637 27.8 42.637 27.56C42.637 27.32 42.757 27.08 42.997 26.84C45.157 24.2 47.017 21.38 48.577 18.38C48.377 18.38 48.077 18.38 47.677 18.38C47.277 18.34 46.957 18.3 46.717 18.26C46.437 18.18 46.217 18.06 46.057 17.9C45.897 17.74 45.817 17.58 45.817 17.42C45.817 17.18 45.917 17.04 46.117 17C46.637 16.84 47.197 16.6 47.797 16.28C48.397 15.96 48.957 15.54 49.477 15.02C50.037 14.46 50.557 13.88 51.037 13.28C51.517 12.64 51.897 12.16 52.177 11.84C52.457 11.64 52.757 11.54 53.077 11.54C53.277 11.54 53.457 11.6 53.617 11.72C53.817 11.84 53.917 12.02 53.917 12.26C53.917 12.54 53.797 12.9 53.557 13.34C53.197 13.9 52.797 14.52 52.357 15.2C51.957 15.88 51.577 16.5 51.217 17.06C51.937 17.1 52.657 17.14 53.377 17.18C54.097 17.22 54.837 17.24 55.597 17.24C55.997 17.24 56.377 17.24 56.737 17.24C57.137 17.2 57.537 17.18 57.937 17.18C59.137 17.18 59.737 17.48 59.737 18.08C59.737 18.48 59.517 18.98 59.077 19.58C58.677 20.14 58.177 20.76 57.577 21.44C56.217 23 55.057 24.64 54.097 26.36C53.137 28.08 52.497 29.4 52.177 30.32C51.857 31.28 51.697 32 51.697 32.48C51.697 33.44 52.077 33.92 52.837 33.92C53.517 33.92 54.337 33.58 55.297 32.9C56.297 32.22 57.317 31.4 58.357 30.44C59.397 29.44 60.337 28.48 61.177 27.56C62.017 26.6 62.617 25.88 62.977 25.4C63.057 25.28 63.177 25.22 63.337 25.22C63.497 25.22 63.637 25.3 63.757 25.46C63.877 25.58 63.877 25.74 63.757 25.94C63.317 26.62 62.677 27.48 61.837 28.52C60.997 29.52 60.057 30.52 59.017 31.52C57.977 32.52 56.957 33.38 55.957 34.1C55.437 34.5 54.717 34.86 53.797 35.18C52.917 35.54 52.077 35.72 51.277 35.72Z" fill="#3F2511"/>
<path d="M78.9642 35.6C78.2842 35.6 77.6442 35.44 77.0442 35.12C76.4842 34.8 76.0642 34.2 75.7842 33.32C75.6642 32.96 75.6042 32.46 75.6042 31.82C75.6042 30.94 75.7242 29.96 75.9642 28.88C76.2042 27.8 76.4642 26.88 76.7442 26.12C76.5442 26.2 76.1642 26.56 75.6042 27.2C75.0842 27.8 74.4242 28.54 73.6242 29.42C72.8642 30.26 72.0042 31.12 71.0442 32C70.1242 32.84 69.1642 33.54 68.1642 34.1C67.1642 34.66 66.1842 34.94 65.2242 34.94C64.5842 34.94 63.9042 34.76 63.1842 34.4C62.4642 34 61.8842 33.5 61.4442 32.9C60.8442 32.1 60.5442 31.28 60.5442 30.44C60.5442 29.36 60.9042 28.24 61.6242 27.08C62.3842 25.92 63.3442 24.8 64.5042 23.72C65.7042 22.6 66.9642 21.6 68.2842 20.72C69.6442 19.8 70.9242 19.04 72.1242 18.44C73.3642 17.8 74.3642 17.38 75.1242 17.18C75.9242 16.94 76.8242 16.82 77.8242 16.82C78.3842 16.82 78.9642 16.9 79.5642 17.06C80.1642 17.18 80.6642 17.4 81.0642 17.72C81.3842 17.88 81.6442 18.1 81.8442 18.38C82.0442 18.66 82.1442 18.96 82.1442 19.28C82.1442 19.6 82.0042 19.7 81.7242 19.58C81.4042 19.1 80.9642 18.8 80.4042 18.68C79.8842 18.52 79.3442 18.44 78.7842 18.44C77.1842 18.44 75.4242 18.96 73.5042 20C71.5842 21.04 69.8642 22.26 68.3442 23.66C67.8642 24.06 67.2042 24.76 66.3642 25.76C65.5642 26.72 64.8242 27.78 64.1442 28.94C63.4642 30.1 63.1242 31.16 63.1242 32.12C63.1242 32.64 63.2642 33.1 63.5442 33.5C63.7042 33.78 63.9642 33.92 64.3242 33.92C64.8842 33.92 65.6242 33.62 66.5442 33.02C67.5042 32.42 68.4842 31.7 69.4842 30.86C70.4842 29.98 71.3842 29.14 72.1842 28.34C73.0242 27.54 73.6242 26.96 73.9842 26.6C74.1842 26.4 74.5642 26 75.1242 25.4C75.7242 24.76 76.3642 24.08 77.0442 23.36C77.7242 22.64 78.3242 22.02 78.8442 21.5C79.4042 20.98 79.7642 20.72 79.9242 20.72C80.1242 20.72 80.4442 20.78 80.8842 20.9C81.3642 20.98 81.7642 21.12 82.0842 21.32C82.4042 21.52 82.4642 21.78 82.2642 22.1C81.2242 23.62 80.3842 25.22 79.7442 26.9C79.1442 28.54 78.7842 29.84 78.6642 30.8C78.6242 30.96 78.6042 31.12 78.6042 31.28C78.6042 31.4 78.6042 31.54 78.6042 31.7C78.6042 33.3 79.1642 34.1 80.2842 34.1C80.8842 34.1 81.6842 33.74 82.6842 33.02C83.6842 32.3 84.7042 31.44 85.7442 30.44C86.7842 29.44 87.7242 28.48 88.5642 27.56C89.4442 26.6 90.0442 25.88 90.3642 25.4C90.4842 25.28 90.6042 25.22 90.7242 25.22C90.8842 25.22 91.0242 25.3 91.1442 25.46C91.2642 25.58 91.2642 25.74 91.1442 25.94C90.7042 26.66 90.0642 27.52 89.2242 28.52C88.3842 29.52 87.4442 30.52 86.4042 31.52C85.3642 32.52 84.3442 33.38 83.3442 34.1C82.8242 34.5 82.1642 34.84 81.3642 35.12C80.5642 35.44 79.7642 35.6 78.9642 35.6Z" fill="#3F2511"/>
</svg>
