<svg width="26" height="26" viewBox="0 0 26 26" fill="none" xmlns="http://www.w3.org/2000/svg">
<path d="M15.08 13C15.08 13.4114 14.958 13.8135 14.7295 14.1556C14.5009 14.4976 14.1761 14.7642 13.796 14.9217C13.4159 15.0791 12.9977 15.1203 12.5942 15.04C12.1907 14.9598 11.8201 14.7617 11.5292 14.4708C11.2383 14.1799 11.0402 13.8093 10.96 13.4058C10.8797 13.0023 10.9209 12.5841 11.0783 12.204C11.2358 11.8239 11.5024 11.4991 11.8444 11.2705C12.1865 11.042 12.5886 10.92 13 10.92C13.5511 10.9217 14.0792 11.1414 14.4689 11.5311C14.8586 11.9208 15.0783 12.4489 15.08 13ZM19.5 10.14V15.86C19.5 16.8254 19.1165 17.7512 18.4339 18.4339C17.7512 19.1165 16.8254 19.5 15.86 19.5H10.14C9.17461 19.5 8.24876 19.1165 7.56613 18.4339C6.8835 17.7512 6.5 16.8254 6.5 15.86V10.14C6.5 9.17461 6.8835 8.24876 7.56613 7.56613C8.24876 6.8835 9.17461 6.5 10.14 6.5H15.86C16.8254 6.5 17.7512 6.8835 18.4339 7.56613C19.1165 8.24876 19.5 9.17461 19.5 10.14ZM16.12 13C16.12 12.3829 15.937 11.7797 15.5942 11.2666C15.2514 10.7535 14.7641 10.3536 14.194 10.1175C13.6239 9.88135 12.9965 9.81956 12.3913 9.93995C11.7861 10.0603 11.2302 10.3575 10.7938 10.7938C10.3575 11.2302 10.0603 11.7861 9.93995 12.3913C9.81956 12.9965 9.88135 13.6239 10.1175 14.194C10.3536 14.7641 10.7535 15.2514 11.2666 15.5942C11.7797 15.937 12.3829 16.12 13 16.12C13.8275 16.12 14.6211 15.7913 15.2062 15.2062C15.7913 14.6211 16.12 13.8275 16.12 13ZM17.16 9.62C17.16 9.46573 17.1143 9.31493 17.0285 9.18666C16.9428 9.05838 16.821 8.95841 16.6785 8.89937C16.536 8.84034 16.3791 8.82489 16.2278 8.85499C16.0765 8.88508 15.9375 8.95937 15.8285 9.06846C15.7194 9.17754 15.6451 9.31652 15.615 9.46783C15.5849 9.61913 15.6003 9.77597 15.6594 9.91849C15.7184 10.061 15.8184 10.1828 15.9467 10.2685C16.0749 10.3543 16.2257 10.4 16.38 10.4C16.5869 10.4 16.7853 10.3178 16.9315 10.1715C17.0778 10.0253 17.16 9.82687 17.16 9.62Z" fill="#524133"/>
<circle cx="13" cy="13" r="12.5" stroke="#524133"/>
</svg>
