<svg width="27" height="26" viewBox="0 0 27 26" fill="none" xmlns="http://www.w3.org/2000/svg">
<path d="M7.00261 19.5L7.88141 16.2708C7.30235 15.2781 6.99812 14.1492 7.00001 13C7.00001 9.41005 9.91006 6.5 13.5 6.5C17.09 6.5 20 9.41005 20 13C20 16.5899 17.09 19.5 13.5 19.5C12.3513 19.5018 11.2228 19.1979 10.2305 18.6192L7.00261 19.5ZM11.1542 9.9502C11.0702 9.95541 10.9882 9.97752 10.913 10.0152C10.8425 10.0551 10.7781 10.105 10.7219 10.1634C10.6439 10.2368 10.5997 10.3005 10.5523 10.3623C10.312 10.6749 10.1828 11.0587 10.185 11.453C10.1863 11.7715 10.2695 12.0815 10.3995 12.3714C10.6654 12.9577 11.1028 13.5785 11.6807 14.1537C11.8198 14.2922 11.9556 14.4313 12.1019 14.5606C12.8191 15.1921 13.6737 15.6475 14.5979 15.8905L14.9677 15.9471C15.088 15.9536 15.2082 15.9445 15.3291 15.9386C15.5184 15.9289 15.7033 15.8776 15.8706 15.7885C15.9557 15.7446 16.0387 15.6969 16.1195 15.6455C16.1195 15.6455 16.1475 15.6273 16.2008 15.587C16.2885 15.522 16.3425 15.4758 16.4153 15.3998C16.4692 15.3439 16.516 15.2782 16.5518 15.2035C16.6025 15.0975 16.6532 14.8954 16.674 14.727C16.6896 14.5983 16.685 14.5281 16.6831 14.4846C16.6805 14.415 16.6226 14.3429 16.5596 14.3123L16.1813 14.1427C16.1813 14.1427 15.6158 13.8963 15.2706 13.739C15.2342 13.7232 15.1952 13.7141 15.1556 13.7124C15.1111 13.7078 15.0661 13.7128 15.0238 13.7271C14.9814 13.7413 14.9425 13.7645 14.9099 13.7949V13.7936C14.9066 13.7936 14.8631 13.8307 14.3931 14.4001C14.3661 14.4363 14.329 14.4637 14.2864 14.4788C14.2438 14.4938 14.1977 14.4959 14.1539 14.4846C14.1116 14.4733 14.0701 14.4589 14.0298 14.4417C13.9492 14.4079 13.9212 14.3949 13.866 14.3708L13.8627 14.3695C13.4908 14.2072 13.1466 13.9879 12.8422 13.7195C12.7603 13.648 12.6843 13.57 12.6063 13.4946C12.3505 13.2498 12.1277 12.9727 11.9433 12.6704L11.9049 12.6087C11.8774 12.5672 11.8551 12.5224 11.8386 12.4754C11.8139 12.3799 11.8783 12.3032 11.8783 12.3032C11.8783 12.3032 12.0362 12.1303 12.1097 12.0367C12.1708 11.9589 12.2279 11.878 12.2806 11.7942C12.3573 11.6707 12.3814 11.544 12.3411 11.4458C12.1591 11.0012 11.9706 10.5586 11.7769 10.1192C11.7385 10.0321 11.6248 9.9697 11.5214 9.95735C11.4863 9.95345 11.4512 9.94955 11.4161 9.94695C11.3288 9.94261 11.2413 9.94413 11.1542 9.9502Z" fill="#524133"/>
<circle cx="13.5" cy="13" r="12.5" stroke="#524133"/>
</svg>
